<!-- icon666.com - MILLIONS OF FREE VECTOR ICONS --><svg viewBox="0 0 511 511.99994" xmlns="http://www.w3.org/2000/svg"><g fill-rule="evenodd"><path d="m334.5 489.28125-44.855469-134.179688c-36.359375 12.128907-78.070312 3.714844-107.03125-25.21875-40.804687-40.808593-40.804687-106.976562 0-147.78125l-100.003906-100.003906c-96.035156 96.035156-96.035156 251.753906 0 347.789063 68.125 68.152343 166.3125 87.933593 251.890625 59.394531zm0 0" fill="#b3b0b5" style="fill: rgb(225, 234, 233);"></path><path d="m430.394531 429.886719c96.035157-96.035157 96.035157-251.753907 0-347.789063-68.152343-68.125-166.3125-87.933594-251.890625-59.398437l44.859375 134.183593c36.355469-12.132812 78.066407-3.714843 107.027344 25.21875 40.808594 40.804688 40.808594 106.976563 0 147.78125zm0 0" fill="#b3b0b5" style="fill: rgb(225, 234, 233);"></path><path d="m182.613281 182.101562c11.84375-11.84375 25.84375-20.261718 40.75-25.222656l-44.859375-134.179687c-35.054687 11.703125-68.011718 31.484375-95.894531 59.398437zm0 0" fill="#f9f9f9" style="fill: rgb(249, 249, 249);"></path><path d="m334.5 489.28125c35.054688-11.703125 67.980469-31.480469 95.894531-59.394531l-100.003906-100.003907c-11.871094 11.84375-25.871094 20.261719-40.746094 25.222657zm0 0" fill="#f9f9f9" style="fill: rgb(249, 249, 249);"></path><path d="m330.390625 329.882812c40.808594-40.804687 40.808594-106.976562 0-147.78125-28.960937-28.933593-70.671875-37.351562-107.027344-25.222656-14.90625 4.960938-28.90625 13.375-40.75 25.222656-40.804687 40.804688-40.804687 106.972657 0 147.78125 28.960938 28.933594 70.671875 37.347657 107.03125 25.222657 14.875-4.960938 28.875-13.378907 40.746094-25.222657zm-42.871094-104.90625c17.140625 17.117188 17.140625 44.914063 0 62.03125-17.144531 17.144532-44.917969 17.144532-62.0625 0-17.113281-17.117187-17.113281-44.914062 0-62.03125 17.144531-17.144531 44.917969-17.144531 62.0625 0zm0 0" fill="#cff1fb" style="fill: rgb(225, 234, 233);"></path></g><path d="m463.121094 104.78125c-3.292969-4.492188-9.605469-5.460938-14.097656-2.167969-4.488282 3.296875-5.457032 9.609375-2.164063 14.097657 66.140625 90.144531 58.507813 216.765624-16.625 298.753906l-85.894531-85.894532c17.308594-20.59375 26.742187-46.359374 26.742187-73.578124 0-30.605469-11.917969-59.382813-33.558593-81.023438-29.144532-29.144531-70.207032-39.269531-107.640626-30.390625l-38.4375-114.972656c63.636719-18.128907 134.074219-9.589844 192.214844 27.710937 4.6875 3.007813 10.925782 1.644532 13.933594-3.042968s1.644531-10.925782-3.042969-13.933594c-48.371093-31.035156-106.683593-44.890625-164.199219-39.023438-18.386718 1.878906-36.441406 5.765625-53.84375 11.507813-.402343.082031-.804687.179687-1.203124.3125-.421876.140625-.824219.316406-1.214844.507812-36.886719 12.570313-70.773438 33.484375-98.609375 61.320313-48.351563 48.351562-74.980469 112.644531-74.980469 181.027344 0 68.382812 26.628906 132.671874 74.980469 181.027343 48.351562 48.351563 112.640625 74.980469 181.023437 74.980469 68.382813 0 132.671875-26.628906 181.023438-74.980469 43.496094-43.515625 69.886718-101.234375 74.304687-162.523437 4.375-60.667969-12.921875-120.941406-48.710937-169.714844zm-122.34375 371.464844-38.515625-115.203125c9.867187-4.28125 19.242187-10.027344 27.8125-17.214844l85.894531 85.894531c-22.503906 20.683594-48.078125 36.195313-75.191406 46.523438zm-17.515625-287.011719c17.832031 17.828125 27.648437 41.539063 27.648437 66.757813s-9.816406 48.929687-27.648437 66.761718c-18.40625 18.40625-42.578125 27.609375-66.757813 27.605469-24.175781 0-48.355468-9.203125-66.757812-27.605469-17.832032-17.832031-27.652344-41.542968-27.652344-66.761718s9.820312-48.925782 27.652344-66.757813c18.402344-18.40625 42.582031-27.609375 66.757812-27.609375 24.175782 0 48.351563 9.203125 66.757813 27.609375zm-112.519531-38.292969c-9.863282 4.28125-19.242188 10.027344-27.8125 17.214844l-85.898438-85.902344c22.304688-20.453125 47.941406-35.941406 75.269531-46.300781zm-121 271.816406c-44.542969-44.542968-69.070313-103.769531-69.070313-166.765624 0-59.621094 21.984375-115.855469 62.097656-159.472657l85.894531 85.894531c-17.308593 20.59375-26.742187 46.359376-26.742187 73.578126 0 30.605468 11.917969 59.378906 33.558594 81.023437 22.339843 22.335937 51.679687 33.503906 81.023437 33.503906 8.9375 0 17.875-1.042969 26.617188-3.113281l38.511718 115.199219c-21.25 6.070312-43.1875 9.117187-65.132812 9.117187-60.382812-.007812-120.785156-22.996094-166.757812-68.964844zm0 0" fill="#000000" style="fill: rgb(255, 255, 255);"></path><path d="m256.488281 309.949219c14.410157 0 27.964844-5.613281 38.15625-15.804688 10.199219-10.183593 15.816407-23.734375 15.816407-38.152343 0-14.421876-5.617188-27.96875-15.8125-38.148438-10.195313-10.195312-23.75-15.8125-38.160157-15.8125-14.410156 0-27.964843 5.617188-38.160156 15.8125-10.183594 10.183594-15.789063 23.730469-15.789063 38.148438 0 14.417968 5.605469 27.964843 15.789063 38.148437 10.195313 10.195313 23.75 15.808594 38.160156 15.808594zm-23.898437-77.839844c6.589844-6.589844 15.242187-9.882813 23.894531-9.882813 8.65625 0 17.316406 3.296876 23.90625 9.886719 6.386719 6.375 9.898437 14.855469 9.898437 23.878907 0 9.027343-3.511718 17.507812-9.902343 23.886718-13.179688 13.175782-34.621094 13.175782-47.796875 0-13.167969-13.171875-13.167969-34.601562 0-47.769531zm0 0" fill="#000000" style="fill: rgb(255, 255, 255);"></path><path d="m419.601562 85.566406.140626.113282c1.863281 1.496093 4.09375 2.222656 6.3125 2.222656 2.949218 0 5.875-1.289063 7.867187-3.769532 3.484375-4.339843 2.796875-10.6875-1.546875-14.175781l-.140625-.113281c-4.34375-3.488281-10.6875-2.800781-14.179687 1.542969-3.488282 4.34375-2.796876 10.691406 1.546874 14.179687zm0 0" fill="#000000" style="fill: rgb(255, 255, 255);"></path></svg>