<!-- icon666.com - MILLIONS OF FREE VECTOR ICONS --><svg viewBox="0 0 58 58" xmlns="http://www.w3.org/2000/svg"><g id="Page-1" fill="none" fill-rule="evenodd"><g id="009---Disk-Drive" fill-rule="nonzero"><path id="Shape" d="m29 0c-8.9939131-.00877851-17.1661345 5.23052868-20.9123071 13.4071259-3.74617256 8.1765972-2.37752256 17.7871299 3.5023071 24.5928741h34.82c5.8798297-6.8057442 7.2484797-16.4162769 3.5023071-24.5928741-3.7461726-8.17659722-11.918394-13.41590441-20.9123071-13.4071259zm0 26c-1.6568542 0-3-1.3431458-3-3s1.3431458-3 3-3 3 1.3431458 3 3-1.3431458 3-3 3z" fill="#9fc9d3"></path><path id="Shape" d="m45.106 34.067c-.3633119-.0008611-.6975749-.1987024-.8731325-.5167838-.1755577-.3180814-.1647877-.7063557.0281325-1.0142162 1.7920395-2.8576454 2.7414103-6.1629395 2.739-9.536 0-.5522847.4477153-1 1-1s1 .4477153 1 1c.0028062 3.7496295-1.0530199 7.4238766-3.046 10.6-.1834584.2912339-.5037998.4676484-.848.467z" fill="#65ddb9" style="fill: rgb(255, 255, 255);"></path><path id="Shape" d="m14.169 12.136c-.3845585-.0003164-.7348664-.2211244-.9010203-.5679359-.1661538-.3468115-.1187135-.7581766.1220203-1.0580641 3.7851799-4.7536271 9.5334489-7.51913 15.61-7.51.5522847 0 1 .44771525 1 1s-.4477153 1-1 1c-5.4693975-.00721214-10.6429912 2.48237267-14.05 6.761-.1898615.2371369-.4772217.375114-.781.375z" fill="#b49aca" style="fill: rgb(255, 255, 255);"></path><path id="Shape" d="m29 16c-3.8659932 0-7 3.1340068-7 7s3.1340068 7 7 7 7-3.1340068 7-7c.0013278-1.8569222-.7357437-3.6381711-2.0487863-4.9512137s-3.0942915-2.0501141-4.9512137-2.0487863zm0 10c-1.6568542 0-3-1.3431458-3-3s1.3431458-3 3-3 3 1.3431458 3 3-1.3431458 3-3 3z" fill="#84b5cb"></path><rect id="Rectangle-path" fill="#3f5c6c" height="20" rx="2" width="58" y="38"></rect><path id="Shape" d="m41.96 42h11.04c.5522847 0 1 .4477153 1 1v6c0 .5522847-.4477153 1-1 1h-48c-.55228475 0-1-.4477153-1-1v-6c0-.5522847.44771525-1 1-1z" fill="#2c3e50"></path><rect id="Rectangle-path" fill="#35495e" height="10" rx="2" width="52" x="3" y="41"></rect><path id="Shape" d="m41.96 42h11.04c.5522847 0 1 .4477153 1 1v6c0 .5522847-.4477153 1-1 1h-48c-.55228475 0-1-.4477153-1-1v-6c0-.5522847.44771525-1 1-1z" fill="#2c3e50"></path><path id="Shape" d="m54 55h-8c-.5522847 0-1-.4477153-1-1s.4477153-1 1-1h8c.5522847 0 1 .4477153 1 1s-.4477153 1-1 1z" fill="#2c2f38"></path><circle id="Oval" cx="42" cy="54" fill="#c03a2b" r="1"></circle></g></g></svg>