<!-- icon666.com - MILLIONS OF FREE VECTOR ICONS --><svg viewBox="0 0 512 512" xmlns="http://www.w3.org/2000/svg"><path d="m510.714844 233.300781-1.199219-12.300781-93.398437-8.402344 2.699218 18.902344c8.097656 51.898438-9.300781 105-46.199218 142.199219-32.402344 32.101562-74.402344 48.300781-116.703126 48.300781-37.5 0-75-12.601562-105.597656-38.101562l43.5-43.5-166.5-15 15 166.5 44.097656-44.398438c46.800782 41.699219 106.503907 64.5 169.5 64.5 68.101563 0 132.003907-26.398438 180.300782-74.699219 53.699218-53.703125 81.699218-128.101562 74.5-204zm0 0" fill="#7ed8f6"></path><path d="m484.515625 186.597656-15-166.5-44.097656 44.398438c-46.800781-41.695313-106.503907-64.496094-169.503907-64.496094-68.097656 0-132 26.398438-180.296874 74.699219-53.703126 53.699219-81.703126 128.101562-74.503907 204l1.203125 12.300781 93.398438 8.398438-2.699219-18.898438c-8.101563-51.898438 9.300781-105 46.199219-142.199219 32.101562-32.101562 74.402344-48.300781 116.699218-48.300781 37.5 0 75 12.597656 105.601563 38.097656l-43.5 43.5zm0 0" fill="#7ed8f6"></path><g fill="#6aa9ff"><path d="m361.515625 128.097656c-30.601563-25.5-68.101563-38.097656-105.601563-38.097656v-90c63 0 122.703126 22.800781 169.503907 64.5l44.097656-44.402344 15 166.5-166.5-15zm0 0" fill="#6aa9ff" style="fill: rgb(66, 145, 201);"></path><path d="m436.214844 437.300781c-48.300782 48.300781-112.199219 74.699219-180.300782 74.699219v-90c42.300782 0 84.300782-16.199219 116.703126-48.300781 36.898437-37.199219 54.296874-90.300781 46.199218-142.199219l-2.699218-18.902344 93.398437 8.402344 1.199219 12.300781c7.199218 75.898438-20.800782 150.296875-74.5 204zm0 0" fill="#6aa9ff" style="fill: rgb(66, 145, 201);"></path></g></svg>